<svg xmlns="http://www.w3.org/2000/svg" version="1.1" xmlns:xlink="http://www.w3.org/1999/xlink" xmlns:svgjs="http://svgjs.dev/svgjs" width="128" height="128" viewBox="0 0 128 128"><g transform="matrix(0.8046875,0,0,0.8046875,12.597716666455696,14.635738093323546)"><svg viewBox="0 0 107 98" data-background-color="#f9f9f9" preserveAspectRatio="xMidYMid meet" height="117" width="128" xmlns="http://www.w3.org/2000/svg" xmlns:xlink="http://www.w3.org/1999/xlink"><g id="tight-bounds" transform="matrix(1,0,0,1,-0.10151148845397984,2.3837276041282394)"><svg viewBox="0 0 95.481 95.47472670042073" height="95.47472670042073" width="95.481"><g><svg viewBox="0 0 95.481 95.47472670042073" height="95.47472670042073" width="95.481"><g><svg viewBox="0 0 95.481 95.47472670042073" height="95.47472670042073" width="95.481"><g id="textblocktransform"><svg viewBox="0 0 95.481 95.47472670042073" height="95.47472670042073" width="95.481" id="textblock"><g><svg viewBox="0 0 95.481 95.47472670042073" height="95.47472670042073" width="95.481"><g><svg viewBox="0 0 95.481 95.47472670042073" height="95.47472670042073" width="95.481"><g><svg xmlns="http://www.w3.org/2000/svg" data-name="Layer 1" viewBox="1.9980596840982308 1.999999850853969 60.00394253252538 60.00000014914603" x="0" y="0" height="95.47472670042073" width="95.481" class="icon-icon-0" data-fill-palette-color="accent" id="icon-0"><path d="M28.16 17.78a2.507 2.507 0 0 0-2.241 1.366l-7.948 15.627A8.934 8.934 0 0 0 17 38.82V49.45a24.696 24.696 0 0 1-1.157 7.483 0.967 0.967 0 0 1-0.139 0.25 29.809 29.809 0 0 0 12.999 4.633 0.958 0.958 0 0 1 0.028-0.233 29.239 29.239 0 0 0 1.374-12.291l-1.1-10.78a0.985 0.985 0 0 1-0.001-0.194L30.654 20.438c0.008-0.078 0.016-0.153 0.016-0.228A2.474 2.474 0 0 0 28.16 17.78Z" fill="#000000" data-fill-palette-color="accent"></path><path d="M31.832 57.385a31.852 31.852 0 0 1-1.127 4.582C31.135 61.985 31.566 62 32 62c0.325 0 0.646-0.014 0.968-0.024A31.307 31.307 0 0 1 31.832 57.385Z" fill="#000000" data-fill-palette-color="accent"></path><polygon points="31.835 46.542 32.665 38.406 31.832 29.436 31.005 38.405 31.835 46.542" fill="#000000" data-fill-palette-color="accent"></polygon><path d="M47.89 57.131a24.62 24.62 0 0 1-1.22-7.681V38.82a8.933 8.933 0 0 0-0.971-4.046L37.749 19.144a2.496 2.496 0 0 0-2.14-1.354 1.029 1.029 0 0 1-0.169-0.02A2.481 2.481 0 0 0 33 20.23c0 0.067-0.001 0.135 0.005 0.202l1.661 17.886a0.952 0.952 0 0 1-0.001 0.194L33.564 49.291a29.066 29.066 0 0 0 1.384 12.319 0.961 0.961 0 0 1 0.03 0.242A29.807 29.807 0 0 0 48.019 57.36 0.97 0.97 0 0 1 47.89 57.131Z" fill="#000000" data-fill-palette-color="accent"></path><path d="M32 2A30.001 30.001 0 0 0 14.022 56.018 22.685 22.685 0 0 0 15 49.45V38.82a10.939 10.939 0 0 1 1.189-4.955l7.949-15.628a4.526 4.526 0 0 1 7.7-0.575A4.505 4.505 0 0 1 35.5 15.78a1.816 1.816 0 0 1 0.24 0.013 4.498 4.498 0 0 1 3.79 2.44l7.951 15.634a10.94 10.94 0 0 1 1.189 4.953V49.45a22.634 22.634 0 0 0 1.036 6.763A29.997 29.997 0 0 0 32 2ZM15.715 26.759l-1.648 1.686 0.387 2.396a1 1 0 0 1-1.471 1.034L10.992 30.775 9.002 31.87a1 1 0 0 1-1.468-1.04l0.397-2.394-1.647-1.691a1 1 0 0 1 0.568-1.687l2.238-0.335 1.012-2.149A1 1 0 0 1 11.007 22h0.002a1 1 0 0 1 0.904 0.578l1.001 2.149 2.238 0.345a1 1 0 0 1 0.563 1.687Zm7-12l-1.648 1.686 0.387 2.396a1 1 0 0 1-1.471 1.034L17.992 18.775 16.002 19.87a1 1 0 0 1-1.468-1.04l0.397-2.394-1.647-1.691a1 1 0 0 1 0.568-1.687l2.238-0.335L17.102 10.574A1 1 0 0 1 18.007 10h0.002a1 1 0 0 1 0.904 0.578l1.001 2.149 2.238 0.345a1 1 0 0 1 0.563 1.687Zm14-5l-1.648 1.686 0.387 2.396a1 1 0 0 1-1.471 1.034L31.992 13.775 30.002 14.87a1 1 0 0 1-1.468-1.04l0.397-2.394-1.647-1.691a1 1 0 0 1 0.568-1.687l2.238-0.335 1.012-2.149A1 1 0 0 1 32.007 5h0.002a1 1 0 0 1 0.904 0.578l1.001 2.149 2.238 0.345a1 1 0 0 1 0.563 1.687Zm9.277 9.016L44.002 19.87a1 1 0 0 1-1.468-1.04l0.397-2.394-1.647-1.691a1 1 0 0 1 0.568-1.687l2.238-0.335 1.012-2.149A1 1 0 0 1 46.007 10h0.002a1 1 0 0 1 0.904 0.578l1.001 2.149 2.238 0.345a1 1 0 0 1 0.563 1.687l-1.648 1.686 0.387 2.396a1 1 0 0 1-1.471 1.034ZM56.454 30.841a1 1 0 0 1-1.471 1.034L52.992 30.775 51.002 31.87a1 1 0 0 1-1.468-1.04l0.397-2.394-1.647-1.691a1 1 0 0 1 0.568-1.687l2.238-0.335 1.012-2.149A1 1 0 0 1 53.007 22h0.002a1 1 0 0 1 0.904 0.578l1.001 2.149 2.238 0.345a1 1 0 0 1 0.563 1.687l-1.648 1.686Z" fill="#000000" data-fill-palette-color="accent"></path></svg></g></svg></g></svg></g></svg></g></svg></g><g></g></svg></g><defs></defs></svg><rect width="95.481" height="95.47472670042073" fill="none" stroke="none" visibility="hidden"></rect></g></svg></g></svg>